<svg width="9" height="11" viewBox="0 0 9 11" fill="none" xmlns="http://www.w3.org/2000/svg">
<path opacity="0.54" fill-rule="evenodd" clip-rule="evenodd" d="M6.625 5.10024C7.375 4.57524 7.9 3.75024 7.9 3.00024C7.9 1.27524 6.625 0.000244141 4.9 0.000244141H0.25V10.5002H5.5C7.075 10.5002 8.275 9.22524 8.275 7.65024C8.275 6.52524 7.6 5.55024 6.625 5.10024ZM2.42502 1.87523H4.67502C5.27502 1.87523 5.80002 2.40023 5.80002 3.00023C5.80002 3.60023 5.27502 4.12523 4.67502 4.12523H2.42502V1.87523ZM5.05002 8.62517H2.42502V6.37517H5.05002C5.65002 6.37517 6.17502 6.90017 6.17502 7.50017C6.17502 8.10017 5.72502 8.62517 5.05002 8.62517Z" fill="black"/>
</svg>
