<svg width="11" height="10" viewBox="0 0 11 10" fill="none" xmlns="http://www.w3.org/2000/svg">
<path opacity="0.54" fill-rule="evenodd" clip-rule="evenodd" d="M8.42074 5.08162L3.33912 0L2.53976 0.799357L3.91009 2.16968L0.998147 5.08162C0.655566 5.42421 0.655566 5.93808 0.998147 6.28066L4.13848 9.42099C4.30977 9.59228 4.53816 9.64938 4.76654 9.64938C4.99493 9.64938 5.22332 9.59228 5.39461 9.42099L8.53494 6.28066C8.76333 5.99517 8.76333 5.42421 8.42074 5.08162ZM1.91181 5.70974L4.65246 2.96909L7.39311 5.70974H1.91181ZM9.79117 6.56614C9.79117 6.56614 8.64923 7.82227 8.64923 8.56453C8.64923 9.1926 9.16311 9.70647 9.79117 9.70647C10.4192 9.70647 10.9331 9.1926 10.9331 8.56453C10.9331 7.82227 9.79117 6.56614 9.79117 6.56614Z" fill="black"/>
</svg>
